<mxfile host="app.diagrams.net" modified="2023-07-14T05:20:52.200Z" agent="Mozilla/5.0 (X11; Linux x86_64) AppleWebKit/537.36 (KHTML, like Gecko) Chrome/114.0.0.0 Safari/537.36" etag="ArZiIIDiLoTVap3TCV4x" version="21.6.1" type="github">
  <diagram name="Страница 1" id="JitTd_IMZwC5bZD_vbZD">
    <mxGraphModel dx="1434" dy="747" grid="1" gridSize="10" guides="1" tooltips="1" connect="1" arrows="1" fold="1" page="1" pageScale="1" pageWidth="827" pageHeight="1169" math="0" shadow="0">
      <root>
        <mxCell id="0" />
        <mxCell id="1" parent="0" />
        <mxCell id="nBOdrs7TVnGfuyen_7ym-8" value="Storage - filesystem" style="swimlane;startSize=20;horizontal=1;containerType=tree;newEdgeStyle={&quot;edgeStyle&quot;:&quot;elbowEdgeStyle&quot;,&quot;startArrow&quot;:&quot;none&quot;,&quot;endArrow&quot;:&quot;none&quot;};strokeWidth=4;" vertex="1" parent="1">
          <mxGeometry x="40" y="92" width="760" height="370" as="geometry">
            <mxRectangle x="40" y="40" width="160" height="30" as="alternateBounds" />
          </mxGeometry>
        </mxCell>
        <mxCell id="nBOdrs7TVnGfuyen_7ym-16" value="classifiers" style="swimlane;startSize=20;horizontal=1;containerType=tree;newEdgeStyle={&quot;edgeStyle&quot;:&quot;elbowEdgeStyle&quot;,&quot;startArrow&quot;:&quot;none&quot;,&quot;endArrow&quot;:&quot;none&quot;};strokeWidth=4;" vertex="1" parent="nBOdrs7TVnGfuyen_7ym-8">
          <mxGeometry x="10" y="30" width="580" height="330" as="geometry">
            <mxRectangle x="40" y="40" width="160" height="30" as="alternateBounds" />
          </mxGeometry>
        </mxCell>
        <mxCell id="nBOdrs7TVnGfuyen_7ym-19" value="global" style="swimlane;startSize=20;horizontal=1;containerType=tree;newEdgeStyle={&quot;edgeStyle&quot;:&quot;elbowEdgeStyle&quot;,&quot;startArrow&quot;:&quot;none&quot;,&quot;endArrow&quot;:&quot;none&quot;};strokeWidth=3;" vertex="1" parent="nBOdrs7TVnGfuyen_7ym-16">
          <mxGeometry x="10" y="30" width="280" height="150" as="geometry">
            <mxRectangle x="40" y="40" width="160" height="30" as="alternateBounds" />
          </mxGeometry>
        </mxCell>
        <mxCell id="nBOdrs7TVnGfuyen_7ym-20" value="schemas" style="swimlane;startSize=20;horizontal=1;containerType=tree;newEdgeStyle={&quot;edgeStyle&quot;:&quot;elbowEdgeStyle&quot;,&quot;startArrow&quot;:&quot;none&quot;,&quot;endArrow&quot;:&quot;none&quot;};strokeWidth=2;" vertex="1" parent="nBOdrs7TVnGfuyen_7ym-19">
          <mxGeometry x="10" y="30" width="130" height="80" as="geometry">
            <mxRectangle x="10" y="30" width="160" height="30" as="alternateBounds" />
          </mxGeometry>
        </mxCell>
        <mxCell id="nBOdrs7TVnGfuyen_7ym-45" value="" style="group" vertex="1" connectable="0" parent="nBOdrs7TVnGfuyen_7ym-20">
          <mxGeometry x="15.75" y="25" width="98.5" height="50" as="geometry" />
        </mxCell>
        <mxCell id="nBOdrs7TVnGfuyen_7ym-46" value="" style="rounded=0;whiteSpace=wrap;html=1;" vertex="1" parent="nBOdrs7TVnGfuyen_7ym-45">
          <mxGeometry width="90" height="40" as="geometry" />
        </mxCell>
        <mxCell id="nBOdrs7TVnGfuyen_7ym-47" value="classifier_name&lt;br style=&quot;border-color: var(--border-color);&quot;&gt;.schema.json" style="rounded=0;whiteSpace=wrap;html=1;" vertex="1" parent="nBOdrs7TVnGfuyen_7ym-45">
          <mxGeometry x="8.5" y="10" width="90" height="40" as="geometry" />
        </mxCell>
        <mxCell id="nBOdrs7TVnGfuyen_7ym-38" value="" style="group" vertex="1" connectable="0" parent="nBOdrs7TVnGfuyen_7ym-19">
          <mxGeometry x="150" y="30" width="120" height="50" as="geometry" />
        </mxCell>
        <mxCell id="nBOdrs7TVnGfuyen_7ym-37" value="" style="rounded=0;whiteSpace=wrap;html=1;" vertex="1" parent="nBOdrs7TVnGfuyen_7ym-38">
          <mxGeometry width="110" height="40" as="geometry" />
        </mxCell>
        <mxCell id="nBOdrs7TVnGfuyen_7ym-31" value="classifier_name&lt;br&gt;.classifier.json" style="rounded=0;whiteSpace=wrap;html=1;" vertex="1" parent="nBOdrs7TVnGfuyen_7ym-38">
          <mxGeometry x="10" y="10" width="110" height="40" as="geometry" />
        </mxCell>
        <mxCell id="nBOdrs7TVnGfuyen_7ym-54" value="" style="group" vertex="1" connectable="0" parent="nBOdrs7TVnGfuyen_7ym-19">
          <mxGeometry x="150" y="90" width="120" height="55" as="geometry" />
        </mxCell>
        <mxCell id="nBOdrs7TVnGfuyen_7ym-57" value="" style="group" vertex="1" connectable="0" parent="nBOdrs7TVnGfuyen_7ym-54">
          <mxGeometry y="-4" width="120" height="55" as="geometry" />
        </mxCell>
        <mxCell id="nBOdrs7TVnGfuyen_7ym-55" value="" style="rounded=0;whiteSpace=wrap;html=1;" vertex="1" parent="nBOdrs7TVnGfuyen_7ym-57">
          <mxGeometry width="110" height="44" as="geometry" />
        </mxCell>
        <mxCell id="nBOdrs7TVnGfuyen_7ym-56" value="classifier_name&lt;br&gt;.classifier.dynamic&lt;br&gt;.json" style="rounded=0;whiteSpace=wrap;html=1;" vertex="1" parent="nBOdrs7TVnGfuyen_7ym-57">
          <mxGeometry x="10" y="11" width="110" height="44" as="geometry" />
        </mxCell>
        <mxCell id="nBOdrs7TVnGfuyen_7ym-24" value="system" style="swimlane;startSize=20;horizontal=1;containerType=tree;newEdgeStyle={&quot;edgeStyle&quot;:&quot;elbowEdgeStyle&quot;,&quot;startArrow&quot;:&quot;none&quot;,&quot;endArrow&quot;:&quot;none&quot;};strokeWidth=3;" vertex="1" parent="nBOdrs7TVnGfuyen_7ym-16">
          <mxGeometry x="300" y="30" width="270" height="150" as="geometry">
            <mxRectangle x="40" y="40" width="160" height="30" as="alternateBounds" />
          </mxGeometry>
        </mxCell>
        <mxCell id="nBOdrs7TVnGfuyen_7ym-29" value="schemas" style="swimlane;startSize=20;horizontal=1;containerType=tree;newEdgeStyle={&quot;edgeStyle&quot;:&quot;elbowEdgeStyle&quot;,&quot;startArrow&quot;:&quot;none&quot;,&quot;endArrow&quot;:&quot;none&quot;};strokeWidth=2;" vertex="1" parent="nBOdrs7TVnGfuyen_7ym-24">
          <mxGeometry x="5" y="30" width="130" height="80" as="geometry">
            <mxRectangle x="10" y="30" width="160" height="30" as="alternateBounds" />
          </mxGeometry>
        </mxCell>
        <mxCell id="nBOdrs7TVnGfuyen_7ym-43" value="" style="group" vertex="1" connectable="0" parent="nBOdrs7TVnGfuyen_7ym-29">
          <mxGeometry x="15.75" y="25" width="98.5" height="50" as="geometry" />
        </mxCell>
        <mxCell id="nBOdrs7TVnGfuyen_7ym-44" value="" style="group" vertex="1" connectable="0" parent="nBOdrs7TVnGfuyen_7ym-43">
          <mxGeometry width="98.5" height="50" as="geometry" />
        </mxCell>
        <mxCell id="nBOdrs7TVnGfuyen_7ym-25" value="" style="rounded=0;whiteSpace=wrap;html=1;" vertex="1" parent="nBOdrs7TVnGfuyen_7ym-44">
          <mxGeometry width="90" height="40" as="geometry" />
        </mxCell>
        <mxCell id="nBOdrs7TVnGfuyen_7ym-42" value="classifier_name&lt;br style=&quot;border-color: var(--border-color);&quot;&gt;.schema.json" style="rounded=0;whiteSpace=wrap;html=1;" vertex="1" parent="nBOdrs7TVnGfuyen_7ym-44">
          <mxGeometry x="8.5" y="10" width="90" height="40" as="geometry" />
        </mxCell>
        <mxCell id="nBOdrs7TVnGfuyen_7ym-39" value="" style="group" vertex="1" connectable="0" parent="nBOdrs7TVnGfuyen_7ym-24">
          <mxGeometry x="140" y="30" width="120" height="50" as="geometry" />
        </mxCell>
        <mxCell id="nBOdrs7TVnGfuyen_7ym-40" value="" style="rounded=0;whiteSpace=wrap;html=1;" vertex="1" parent="nBOdrs7TVnGfuyen_7ym-39">
          <mxGeometry width="110" height="40" as="geometry" />
        </mxCell>
        <mxCell id="nBOdrs7TVnGfuyen_7ym-41" value="classifier_name&lt;br&gt;.classifier.json" style="rounded=0;whiteSpace=wrap;html=1;" vertex="1" parent="nBOdrs7TVnGfuyen_7ym-39">
          <mxGeometry x="10" y="10" width="110" height="40" as="geometry" />
        </mxCell>
        <mxCell id="nBOdrs7TVnGfuyen_7ym-21" value="local" style="swimlane;startSize=20;horizontal=1;containerType=tree;newEdgeStyle={&quot;edgeStyle&quot;:&quot;elbowEdgeStyle&quot;,&quot;startArrow&quot;:&quot;none&quot;,&quot;endArrow&quot;:&quot;none&quot;};strokeWidth=3;" vertex="1" parent="nBOdrs7TVnGfuyen_7ym-16">
          <mxGeometry x="10" y="190" width="160" height="130" as="geometry">
            <mxRectangle x="40" y="40" width="160" height="30" as="alternateBounds" />
          </mxGeometry>
        </mxCell>
        <mxCell id="nBOdrs7TVnGfuyen_7ym-33" value="OVU GUID" style="swimlane;startSize=20;horizontal=1;containerType=tree;newEdgeStyle={&quot;edgeStyle&quot;:&quot;elbowEdgeStyle&quot;,&quot;startArrow&quot;:&quot;none&quot;,&quot;endArrow&quot;:&quot;none&quot;};strokeWidth=2;" vertex="1" parent="nBOdrs7TVnGfuyen_7ym-21">
          <mxGeometry x="10" y="30" width="130" height="90" as="geometry">
            <mxRectangle x="10" y="30" width="160" height="30" as="alternateBounds" />
          </mxGeometry>
        </mxCell>
        <mxCell id="nBOdrs7TVnGfuyen_7ym-48" value="" style="group" vertex="1" connectable="0" parent="nBOdrs7TVnGfuyen_7ym-33">
          <mxGeometry x="5" y="30" width="120" height="50" as="geometry" />
        </mxCell>
        <mxCell id="nBOdrs7TVnGfuyen_7ym-49" value="" style="rounded=0;whiteSpace=wrap;html=1;" vertex="1" parent="nBOdrs7TVnGfuyen_7ym-48">
          <mxGeometry width="110" height="40" as="geometry" />
        </mxCell>
        <mxCell id="nBOdrs7TVnGfuyen_7ym-50" value="classifier_name&lt;br&gt;.classifier.json" style="rounded=0;whiteSpace=wrap;html=1;" vertex="1" parent="nBOdrs7TVnGfuyen_7ym-48">
          <mxGeometry x="10" y="10" width="110" height="40" as="geometry" />
        </mxCell>
        <mxCell id="nBOdrs7TVnGfuyen_7ym-22" value="schemas" style="swimlane;startSize=20;horizontal=1;containerType=tree;newEdgeStyle={&quot;edgeStyle&quot;:&quot;elbowEdgeStyle&quot;,&quot;startArrow&quot;:&quot;none&quot;,&quot;endArrow&quot;:&quot;none&quot;};strokeWidth=4;" vertex="1" parent="nBOdrs7TVnGfuyen_7ym-8">
          <mxGeometry x="600" y="30" width="150" height="330" as="geometry">
            <mxRectangle x="40" y="40" width="160" height="30" as="alternateBounds" />
          </mxGeometry>
        </mxCell>
        <mxCell id="nBOdrs7TVnGfuyen_7ym-35" value="" style="rounded=0;whiteSpace=wrap;html=1;" vertex="1" parent="nBOdrs7TVnGfuyen_7ym-22">
          <mxGeometry x="10" y="30" width="120" height="40" as="geometry" />
        </mxCell>
        <mxCell id="nBOdrs7TVnGfuyen_7ym-36" value="object_name&lt;br&gt;.schema.json" style="rounded=0;whiteSpace=wrap;html=1;" vertex="1" parent="nBOdrs7TVnGfuyen_7ym-22">
          <mxGeometry x="20" y="40" width="120" height="40" as="geometry" />
        </mxCell>
        <mxCell id="nBOdrs7TVnGfuyen_7ym-51" value="" style="group" vertex="1" connectable="0" parent="1">
          <mxGeometry x="490" y="175" width="120" height="55" as="geometry" />
        </mxCell>
        <mxCell id="nBOdrs7TVnGfuyen_7ym-52" value="" style="rounded=0;whiteSpace=wrap;html=1;" vertex="1" parent="nBOdrs7TVnGfuyen_7ym-51">
          <mxGeometry width="110" height="44" as="geometry" />
        </mxCell>
        <mxCell id="nBOdrs7TVnGfuyen_7ym-53" value="classifier_name&lt;br&gt;.classifier.dynamic&lt;br&gt;.json" style="rounded=0;whiteSpace=wrap;html=1;" vertex="1" parent="nBOdrs7TVnGfuyen_7ym-51">
          <mxGeometry x="10" y="11" width="110" height="44" as="geometry" />
        </mxCell>
        <mxCell id="nBOdrs7TVnGfuyen_7ym-58" value="" style="endArrow=none;dashed=1;html=1;rounded=0;" edge="1" parent="1">
          <mxGeometry width="50" height="50" relative="1" as="geometry">
            <mxPoint x="40" y="480" as="sourcePoint" />
            <mxPoint x="800" y="480" as="targetPoint" />
          </mxGeometry>
        </mxCell>
        <mxCell id="nBOdrs7TVnGfuyen_7ym-59" value="&lt;h1&gt;Storage system&lt;/h1&gt;" style="text;html=1;strokeColor=none;fillColor=none;spacing=5;spacingTop=-20;whiteSpace=wrap;overflow=hidden;rounded=0;align=center;" vertex="1" parent="1">
          <mxGeometry x="10" y="32" width="810" height="40" as="geometry" />
        </mxCell>
        <mxCell id="nBOdrs7TVnGfuyen_7ym-60" value="&lt;h1&gt;Class diagram&lt;/h1&gt;" style="text;html=1;strokeColor=none;fillColor=none;spacing=5;spacingTop=-20;whiteSpace=wrap;overflow=hidden;rounded=0;align=center;" vertex="1" parent="1">
          <mxGeometry x="9" y="500" width="810" height="40" as="geometry" />
        </mxCell>
        <mxCell id="nBOdrs7TVnGfuyen_7ym-61" value="libclassifierengine" style="swimlane;whiteSpace=wrap;html=1;" vertex="1" parent="1">
          <mxGeometry x="40" y="560" width="760" height="530" as="geometry" />
        </mxCell>
        <mxCell id="nBOdrs7TVnGfuyen_7ym-67" value="&lt;span style=&quot;font-weight: normal;&quot;&gt;ClassifierImpl&lt;/span&gt;" style="swimlane;fontStyle=1;align=center;verticalAlign=top;childLayout=stackLayout;horizontal=1;startSize=26;horizontalStack=0;resizeParent=1;resizeParentMax=0;resizeLast=0;collapsible=1;marginBottom=0;whiteSpace=wrap;html=1;" vertex="1" parent="nBOdrs7TVnGfuyen_7ym-61">
          <mxGeometry x="15" y="40" width="485" height="232" as="geometry" />
        </mxCell>
        <mxCell id="nBOdrs7TVnGfuyen_7ym-68" value="+ name: string" style="text;strokeColor=none;fillColor=none;align=left;verticalAlign=top;spacingLeft=4;spacingRight=4;overflow=hidden;rotatable=0;points=[[0,0.5],[1,0.5]];portConstraint=eastwest;whiteSpace=wrap;html=1;" vertex="1" parent="nBOdrs7TVnGfuyen_7ym-67">
          <mxGeometry y="26" width="485" height="22" as="geometry" />
        </mxCell>
        <mxCell id="nBOdrs7TVnGfuyen_7ym-73" value="+ group: string" style="text;strokeColor=none;fillColor=none;align=left;verticalAlign=top;spacingLeft=4;spacingRight=4;overflow=hidden;rotatable=0;points=[[0,0.5],[1,0.5]];portConstraint=eastwest;whiteSpace=wrap;html=1;" vertex="1" parent="nBOdrs7TVnGfuyen_7ym-67">
          <mxGeometry y="48" width="485" height="22" as="geometry" />
        </mxCell>
        <mxCell id="nBOdrs7TVnGfuyen_7ym-72" value="+ description: string" style="text;strokeColor=none;fillColor=none;align=left;verticalAlign=top;spacingLeft=4;spacingRight=4;overflow=hidden;rotatable=0;points=[[0,0.5],[1,0.5]];portConstraint=eastwest;whiteSpace=wrap;html=1;" vertex="1" parent="nBOdrs7TVnGfuyen_7ym-67">
          <mxGeometry y="70" width="485" height="22" as="geometry" />
        </mxCell>
        <mxCell id="nBOdrs7TVnGfuyen_7ym-74" value="+ type: string" style="text;strokeColor=none;fillColor=none;align=left;verticalAlign=top;spacingLeft=4;spacingRight=4;overflow=hidden;rotatable=0;points=[[0,0.5],[1,0.5]];portConstraint=eastwest;whiteSpace=wrap;html=1;" vertex="1" parent="nBOdrs7TVnGfuyen_7ym-67">
          <mxGeometry y="92" width="485" height="22" as="geometry" />
        </mxCell>
        <mxCell id="nBOdrs7TVnGfuyen_7ym-75" value="+ version: string" style="text;strokeColor=none;fillColor=none;align=left;verticalAlign=top;spacingLeft=4;spacingRight=4;overflow=hidden;rotatable=0;points=[[0,0.5],[1,0.5]];portConstraint=eastwest;whiteSpace=wrap;html=1;" vertex="1" parent="nBOdrs7TVnGfuyen_7ym-67">
          <mxGeometry y="114" width="485" height="22" as="geometry" />
        </mxCell>
        <mxCell id="nBOdrs7TVnGfuyen_7ym-71" value="+ list: jsoncons::json" style="text;strokeColor=none;fillColor=none;align=left;verticalAlign=top;spacingLeft=4;spacingRight=4;overflow=hidden;rotatable=0;points=[[0,0.5],[1,0.5]];portConstraint=eastwest;whiteSpace=wrap;html=1;" vertex="1" parent="nBOdrs7TVnGfuyen_7ym-67">
          <mxGeometry y="136" width="485" height="22" as="geometry" />
        </mxCell>
        <mxCell id="nBOdrs7TVnGfuyen_7ym-69" value="" style="line;strokeWidth=1;fillColor=none;align=left;verticalAlign=middle;spacingTop=-1;spacingLeft=3;spacingRight=3;rotatable=0;labelPosition=right;points=[];portConstraint=eastwest;strokeColor=inherit;" vertex="1" parent="nBOdrs7TVnGfuyen_7ym-67">
          <mxGeometry y="158" width="485" height="8" as="geometry" />
        </mxCell>
        <mxCell id="nBOdrs7TVnGfuyen_7ym-77" value="+&amp;nbsp;ClassifierImpl(const string &amp;amp;, const string &amp;amp;, const string &amp;amp;,&lt;span style=&quot;background-color: initial;&quot;&gt;&amp;nbsp; const string &amp;amp;, &lt;span style=&quot;white-space: pre;&quot;&gt;&#x9;&lt;/span&gt;&lt;span style=&quot;white-space: pre;&quot;&gt;&#x9;&lt;/span&gt;&lt;span style=&quot;white-space: pre;&quot;&gt;&#x9;&lt;/span&gt;&amp;nbsp; &amp;nbsp; &amp;nbsp;const string &amp;amp;, const jsoncons::json &amp;amp;)&amp;nbsp;&lt;/span&gt;" style="text;strokeColor=none;fillColor=none;align=left;verticalAlign=top;spacingLeft=4;spacingRight=4;overflow=hidden;rotatable=0;points=[[0,0.5],[1,0.5]];portConstraint=eastwest;whiteSpace=wrap;html=1;" vertex="1" parent="nBOdrs7TVnGfuyen_7ym-67">
          <mxGeometry y="166" width="485" height="40" as="geometry" />
        </mxCell>
        <mxCell id="nBOdrs7TVnGfuyen_7ym-70" value="+&amp;nbsp;value(const std::vector&amp;lt;std::pair&amp;lt;std::string, jsoncons::json&amp;gt;&amp;gt; &amp;amp;) const: jsoncons::json" style="text;strokeColor=none;fillColor=none;align=left;verticalAlign=top;spacingLeft=4;spacingRight=4;overflow=hidden;rotatable=0;points=[[0,0.5],[1,0.5]];portConstraint=eastwest;whiteSpace=wrap;html=1;" vertex="1" parent="nBOdrs7TVnGfuyen_7ym-67">
          <mxGeometry y="206" width="485" height="26" as="geometry" />
        </mxCell>
        <mxCell id="nBOdrs7TVnGfuyen_7ym-62" value="ClassifierInfo" style="swimlane;fontStyle=0;childLayout=stackLayout;horizontal=1;startSize=26;fillColor=none;horizontalStack=0;resizeParent=1;resizeParentMax=0;resizeLast=0;collapsible=1;marginBottom=0;whiteSpace=wrap;html=1;" vertex="1" parent="nBOdrs7TVnGfuyen_7ym-61">
          <mxGeometry x="15" y="310" width="220" height="92" as="geometry" />
        </mxCell>
        <mxCell id="nBOdrs7TVnGfuyen_7ym-63" value="+ path: string" style="text;strokeColor=none;fillColor=none;align=left;verticalAlign=top;spacingLeft=4;spacingRight=4;overflow=hidden;rotatable=0;points=[[0,0.5],[1,0.5]];portConstraint=eastwest;whiteSpace=wrap;html=1;" vertex="1" parent="nBOdrs7TVnGfuyen_7ym-62">
          <mxGeometry y="26" width="220" height="22" as="geometry" />
        </mxCell>
        <mxCell id="nBOdrs7TVnGfuyen_7ym-64" value="+ classifier:&amp;nbsp;ClassifierImpl" style="text;strokeColor=none;fillColor=none;align=left;verticalAlign=top;spacingLeft=4;spacingRight=4;overflow=hidden;rotatable=0;points=[[0,0.5],[1,0.5]];portConstraint=eastwest;whiteSpace=wrap;html=1;" vertex="1" parent="nBOdrs7TVnGfuyen_7ym-62">
          <mxGeometry y="48" width="220" height="22" as="geometry" />
        </mxCell>
        <mxCell id="nBOdrs7TVnGfuyen_7ym-65" value="+ timeLastUpdate: Poco::Timesstamp" style="text;strokeColor=none;fillColor=none;align=left;verticalAlign=top;spacingLeft=4;spacingRight=4;overflow=hidden;rotatable=0;points=[[0,0.5],[1,0.5]];portConstraint=eastwest;whiteSpace=wrap;html=1;" vertex="1" parent="nBOdrs7TVnGfuyen_7ym-62">
          <mxGeometry y="70" width="220" height="22" as="geometry" />
        </mxCell>
        <mxCell id="nBOdrs7TVnGfuyen_7ym-78" value="SchemeInfo" style="swimlane;fontStyle=0;childLayout=stackLayout;horizontal=1;startSize=26;fillColor=none;horizontalStack=0;resizeParent=1;resizeParentMax=0;resizeLast=0;collapsible=1;marginBottom=0;whiteSpace=wrap;html=1;" vertex="1" parent="nBOdrs7TVnGfuyen_7ym-61">
          <mxGeometry x="260" y="310" width="220" height="92" as="geometry" />
        </mxCell>
        <mxCell id="nBOdrs7TVnGfuyen_7ym-79" value="+ path: string" style="text;strokeColor=none;fillColor=none;align=left;verticalAlign=top;spacingLeft=4;spacingRight=4;overflow=hidden;rotatable=0;points=[[0,0.5],[1,0.5]];portConstraint=eastwest;whiteSpace=wrap;html=1;" vertex="1" parent="nBOdrs7TVnGfuyen_7ym-78">
          <mxGeometry y="26" width="220" height="22" as="geometry" />
        </mxCell>
        <mxCell id="nBOdrs7TVnGfuyen_7ym-80" value="+ scheme: jsoncons::json" style="text;strokeColor=none;fillColor=none;align=left;verticalAlign=top;spacingLeft=4;spacingRight=4;overflow=hidden;rotatable=0;points=[[0,0.5],[1,0.5]];portConstraint=eastwest;whiteSpace=wrap;html=1;" vertex="1" parent="nBOdrs7TVnGfuyen_7ym-78">
          <mxGeometry y="48" width="220" height="22" as="geometry" />
        </mxCell>
        <mxCell id="nBOdrs7TVnGfuyen_7ym-81" value="+ timeLastUpdate: Poco::Timesstamp" style="text;strokeColor=none;fillColor=none;align=left;verticalAlign=top;spacingLeft=4;spacingRight=4;overflow=hidden;rotatable=0;points=[[0,0.5],[1,0.5]];portConstraint=eastwest;whiteSpace=wrap;html=1;" vertex="1" parent="nBOdrs7TVnGfuyen_7ym-78">
          <mxGeometry y="70" width="220" height="22" as="geometry" />
        </mxCell>
      </root>
    </mxGraphModel>
  </diagram>
</mxfile>
